<?xml version="1.0" encoding="UTF-8"?>
<svg width="398px" height="318px" viewBox="0 0 398 318" version="1.1" xmlns="http://www.w3.org/2000/svg" xmlns:xlink="http://www.w3.org/1999/xlink">
    <!-- Generator: Sketch 43.1 (39012) - http://www.bohemiancoding.com/sketch -->
    <title>clock</title>
    <desc>Created with Sketch.</desc>
    <defs></defs>
    <g id="Page-1" stroke="none" stroke-width="1" fill="none" fill-rule="evenodd">
        <g id="clock" fill-rule="nonzero" fill="#FFFFFF">
            <path d="M392.681973,123.416722 L261.328604,4.00456829 C251.377591,-5.94644454 239.436376,4.00456829 239.436376,19.9261888 L239.436376,79.6322657 C145.896855,79.6322657 66.2887524,137.34814 28.4749037,214.96604 C14.5434857,240.838673 6.58267547,268.701509 0.612067774,296.564345 C-3.36833735,316.466371 26.4847011,326.417384 38.4259165,308.505561 C82.2103729,238.848471 155.847868,193.073812 239.436376,193.073812 L239.436376,258.750497 C239.436376,274.672117 251.377591,284.62313 261.328604,274.672117 L392.681973,155.259963 C400.642783,147.299153 400.642783,131.377532 392.681973,123.416722 Z" id="share" transform="translate(199.451061, 158.937177) scale(-1, 1) translate(-199.451061, -158.937177) "></path>
        </g>
    </g>
</svg>