<?xml version="1.0" encoding="UTF-8"?>
<svg width="1500px" height="500px" viewBox="0 0 1500 500" version="1.1" xmlns="http://www.w3.org/2000/svg" xmlns:xlink="http://www.w3.org/1999/xlink">
    <!-- Generator: Sketch 43.1 (39012) - http://www.bohemiancoding.com/sketch -->
    <title>Artboard 6</title>
    <desc>Created with Sketch.</desc>
    <defs></defs>
    <g id="Page-1" stroke="none" stroke-width="1" fill="none" fill-rule="evenodd">
        <g id="Artboard-6" fill="#60FFA5">
            <g id="Group-2" transform="translate(-18.000000, -506.000000)">
                <g id="Group" transform="translate(390.280674, 404.513197) rotate(-151.000000) translate(-390.280674, -404.513197) translate(116.280674, 94.513197)">
                    <rect id="Rectangle" fill-opacity="0.5" transform="translate(474.756605, 17.618616) rotate(-50.000000) translate(-474.756605, -17.618616) " x="462.256605" y="5.11861569" width="25" height="25"></rect>
                    <rect id="Rectangle" fill-opacity="0.249999985" transform="translate(78.191508, 194.297674) rotate(-50.000000) translate(-78.191508, -194.297674) " x="68.1915078" y="184.297674" width="20" height="20"></rect>
                </g>
                <rect id="Rectangle" fill-opacity="0.100000001" transform="translate(1297.638085, 765.018626) rotate(-50.000000) translate(-1297.638085, -765.018626) " x="1290.02754" y="757.408078" width="15.2210969" height="15.2210969"></rect>
                <g id="Group" transform="translate(836.198146, 913.998336) scale(-1, -1) rotate(-8.000000) translate(-836.198146, -913.998336) translate(242.198146, 606.498336)">
                    <rect id="Rectangle" fill-opacity="0.5" transform="translate(74.037217, 528.469370) rotate(-50.000000) translate(-74.037217, -528.469370) " x="66.4266684" y="520.858821" width="15.2210969" height="15.2210969"></rect>
                    <rect id="Rectangle" fill-opacity="0.5" transform="translate(472.480829, 603.778552) rotate(-50.000000) translate(-472.480829, -603.778552) " x="464.870281" y="596.168004" width="15.2210969" height="15.2210969"></rect>
                    <rect id="Rectangle" fill-opacity="0.249999985" transform="translate(315.460663, 353.221985) rotate(-50.000000) translate(-315.460663, -353.221985) " x="307.850114" y="345.611436" width="15.2210969" height="15.2210969"></rect>
                    <rect id="Rectangle" fill-opacity="0.100000001" transform="translate(1176.731731, 582.334583) rotate(-50.000000) translate(-1176.731731, -582.334583) " x="1169.12118" y="574.724035" width="15.2210969" height="15.2210969"></rect>
                    <rect id="Rectangle" fill-opacity="0.249999985" transform="translate(14.191508, 189.297674) rotate(-50.000000) translate(-14.191508, -189.297674) " x="4.19150777" y="179.297674" width="20" height="20"></rect>
                </g>
                <g id="Group" transform="translate(294.118097, 728.196726)">
                    <rect id="Rectangle" fill-opacity="0.149999991" transform="translate(433.968872, 17.610401) rotate(-50.000000) translate(-433.968872, -17.610401) " x="421.468872" y="5.11040066" width="25" height="25"></rect>
                    <rect id="Rectangle" fill-opacity="0.249999985" transform="translate(379.460663, 213.221985) rotate(-50.000000) translate(-379.460663, -213.221985) " x="371.850114" y="205.611436" width="15.2210969" height="15.2210969"></rect>
                    <rect id="Rectangle" fill-opacity="0.249999985" transform="translate(114.906229, 106.948053) rotate(-50.000000) translate(-114.906229, -106.948053) " x="104.906229" y="96.948053" width="20" height="20"></rect>
                </g>
                <rect id="Rectangle" fill-opacity="0.5" transform="translate(121.002420, 908.307127) rotate(-50.000000) translate(-121.002420, -908.307127) " x="113.50242" y="900.807127" width="15" height="15"></rect>
            </g>
        </g>
    </g>
</svg>