<?xml version="1.0" encoding="UTF-8"?>
<svg width="345px" height="345px" viewBox="0 0 345 345" version="1.1" xmlns="http://www.w3.org/2000/svg" xmlns:xlink="http://www.w3.org/1999/xlink">
    <!-- Generator: Sketch 43.1 (39012) - http://www.bohemiancoding.com/sketch -->
    <title>search</title>
    <desc>Created with Sketch.</desc>
    <defs></defs>
    <g id="Page-1" stroke="none" stroke-width="1" fill="none" fill-rule="evenodd">
        <g id="search">
            <g id="info" transform="translate(152.000000, 178.000000)"></g>
            <path d="M193.140752,69.9369922 C179.038338,69.9369922 167.5,81.4753305 167.5,95.5777441 C167.5,109.680158 179.038338,121.218496 193.140752,121.218496 C207.243166,121.218496 218.781504,109.680158 218.781504,95.5777441 C218.781504,81.4753305 207.243166,69.9369922 193.140752,69.9369922 Z M154.679624,134.038872 C133.3978,134.038872 116.218496,151.218176 116.218496,172.5 L141.859248,172.5 C141.859248,165.320589 147.500213,159.679624 154.679624,159.679624 C161.859035,159.679624 167.5,165.320589 167.5,172.5 C167.5,179.679411 141.859248,214.550833 141.859248,236.60188 C141.859248,258.652927 159.038552,275.063008 180.320376,275.063008 C201.6022,275.063008 218.781504,257.883704 218.781504,236.60188 L193.140752,236.60188 C193.140752,243.78129 187.499787,249.422256 180.320376,249.422256 C173.140965,249.422256 167.5,243.78129 167.5,236.60188 C167.5,227.371209 193.140752,189.422896 193.140752,172.5 C193.140752,151.730991 175.961448,134.038872 154.679624,134.038872 Z" id="Shape" fill="#6B7C93" fill-rule="nonzero"></path>
            <circle id="Oval-2" stroke="#6B7C93" stroke-width="20" cx="172.5" cy="172.5" r="162.5"></circle>
        </g>
    </g>
</svg>