<?xml version="1.0" encoding="UTF-8"?>
<svg width="8px" height="6px" viewBox="0 0 8 6" version="1.1" xmlns="http://www.w3.org/2000/svg" xmlns:xlink="http://www.w3.org/1999/xlink">
    <!-- Generator: Sketch 42 (36781) - http://www.bohemiancoding.com/sketch -->
    <title>Artboard 2</title>
    <desc>Created with Sketch.</desc>
    <defs></defs>
    <g id="Page-1" stroke="none" stroke-width="1" fill="none" fill-rule="evenodd">
        <g id="Artboard-2" fill-rule="nonzero" fill="#C6CACD">
            <path d="M4.03,0 C1.5,0 0,3 0,3 C0,3 1.5,6 4.03,6 C6.5,6 8,3 8,3 C8,3 6.5,0 4.03,0 L4.03,0 Z M4,1 C5.11,1 6,1.9 6,3 C6,4.11 5.11,5 4,5 C2.9,5 2,4.11 2,3 C2,1.9 2.9,1 4,1 Z M4,2 C3.45,2 3,2.45 3,3 C3,3.55 3.45,4 4,4 C4.55,4 5,3.55 5,3 C5,2.9 4.96,2.81 4.94,2.72 C4.86,2.88 4.7,3 4.5,3 C4.22,3 4,2.78 4,2.5 C4,2.3 4.12,2.14 4.28,2.06 C4.19,2.03 4.1,2 4,2 Z" id="Shape"></path>
        </g>
    </g>
</svg>