<?xml version="1.0" encoding="UTF-8"?>
<svg width="276px" height="276px" viewBox="0 0 276 276" version="1.1" xmlns="http://www.w3.org/2000/svg" xmlns:xlink="http://www.w3.org/1999/xlink">
    <!-- Generator: Sketch 43.1 (39012) - http://www.bohemiancoding.com/sketch -->
    <title>clock</title>
    <desc>Created with Sketch.</desc>
    <defs></defs>
    <g id="Page-1" stroke="none" stroke-width="1" fill="none" fill-rule="evenodd">
        <g id="clock" fill-rule="nonzero" fill="#6B7C93">
            <path d="M137.930528,195.801381 C106.146537,195.801381 80.0596763,170.014369 80.0596763,137.930528 C80.0596763,106.146537 105.846688,80.0596763 137.930528,80.0596763 C169.71452,80.0596763 195.801381,105.846688 195.801381,137.930528 C195.801381,169.71452 169.71452,195.801381 137.930528,195.801381 Z M137.930528,101.348953 C117.840647,101.348953 101.348953,117.840647 101.348953,137.930528 C101.348953,158.02041 117.840647,174.512103 137.930528,174.512103 C158.02041,174.512103 174.512103,158.02041 174.512103,137.930528 C174.512103,117.840647 158.02041,101.348953 137.930528,101.348953 Z M137.930528,275.861057 L136.431284,275.861057 C125.936569,275.861057 116.9411,274.661661 116.341402,274.661661 C111.543819,274.061963 107.945631,270.463775 107.046084,265.666192 L104.047594,244.077066 C97.4509168,241.978123 91.1540883,239.279482 85.1571089,235.981143 L68.3655663,248.874649 C64.4675296,251.873139 59.370097,251.57329 55.4720603,248.874649 C55.1722114,248.5748 47.975836,242.87767 40.4796116,235.681294 L39.2802157,234.481898 C31.7839913,226.985674 26.3867098,219.789299 26.0868608,219.48945 C23.0883711,215.591413 23.0883711,210.49398 26.0868608,206.595944 L39.2802157,189.204703 C35.981877,183.207724 33.5830852,176.611046 31.4841424,170.014369 L10.4947141,167.015879 C5.69713052,166.416181 2.09894282,162.518144 1.49924487,157.720561 C1.1993959,157.420712 0,148.425243 0,137.930528 L0,136.431284 C0,125.936569 1.1993959,116.9411 1.1993959,116.341402 C1.79909385,111.543819 5.39728155,107.945631 10.1948651,107.046084 L31.7839913,104.047594 C33.8829342,97.4509168 36.5815749,91.1540883 39.8799137,85.1571089 L26.9864077,68.3655663 C23.987918,64.4675296 24.287767,59.370097 26.9864077,55.4720603 C27.2862567,55.1722114 32.9833872,47.975836 40.1797626,40.4796116 L41.3791585,39.2802157 C48.8753829,31.7839913 56.0717583,26.3867098 56.3716073,26.0868608 C60.2696439,23.0883711 65.3670765,23.0883711 69.2651132,26.0868608 L86.6563537,39.2802157 C92.6533332,35.981877 99.2500107,33.5830852 105.846688,31.4841424 L108.845178,10.4947141 C109.444876,5.69713052 113.342912,2.09894282 118.140496,1.49924487 C118.440345,1.1993959 127.435814,0 137.930528,0 L139.429773,0 C149.924487,0 158.919957,1.1993959 159.519655,1.1993959 C164.317238,1.79909385 167.915426,5.39728155 168.814973,10.1948651 L171.813463,31.7839913 C178.41014,33.8829342 184.706968,36.5815749 190.703948,39.8799137 L207.495491,26.9864077 C211.393527,23.987918 216.49096,24.287767 220.388997,26.9864077 C220.688845,27.2862567 227.885221,32.9833872 235.381445,40.1797626 L236.580841,41.3791585 C244.077066,48.8753829 249.474347,56.0717583 249.774196,56.3716073 C252.772686,60.2696439 252.772686,65.3670765 249.774196,69.2651132 L236.88069,86.6563537 C240.179029,92.6533332 242.577821,99.2500107 244.676763,105.846688 L265.666192,108.845178 C270.463775,109.444876 274.061963,113.342912 274.661661,118.140496 C274.661661,118.440345 275.861057,127.735663 275.861057,138.230377 L275.861057,139.729622 C275.861057,150.224336 274.661661,159.219806 274.661661,159.819504 C274.061963,164.617087 270.463775,168.215275 265.666192,169.114822 L244.077066,172.113312 C241.978123,178.709989 239.279482,185.006817 235.981143,191.003797 L248.874649,208.095189 C251.873139,211.993225 251.57329,217.090658 248.874649,220.988694 C248.5748,221.288543 242.87767,228.484919 235.681294,235.981143 L234.481898,237.180539 C226.985674,244.676763 219.789299,250.074045 219.48945,250.373894 C215.591413,253.372384 210.49398,253.372384 206.595944,250.373894 L189.204703,236.88069 C183.207724,240.179029 176.611046,242.577821 170.014369,244.676763 L167.015879,265.666192 C166.416181,270.463775 162.518144,274.061963 157.720561,274.661661 C157.420712,274.661661 148.425243,275.861057 137.930528,275.861057 Z M127.135965,254.271931 C129.834606,254.57178 133.132945,254.57178 136.431284,254.57178 L137.930528,254.57178 C141.228867,254.57178 144.527206,254.57178 147.225847,254.271931 L149.924487,234.481898 C150.524185,229.984164 153.822524,226.685825 158.02041,225.486429 C167.315728,223.387486 176.311197,219.789299 184.40712,214.691866 C186.805911,213.192621 189.804401,212.892772 192.503042,213.49247 C194.002287,213.792319 195.501532,214.691866 196.700927,215.591413 L212.592923,227.585372 C214.691866,225.786278 217.090658,223.687335 219.48945,221.288543 L220.688845,220.089148 C223.087637,217.690356 225.18658,215.291564 226.985674,213.192621 L214.991715,197.300625 C212.293074,193.702438 212.293074,188.904854 214.392017,185.306666 C219.48945,177.510593 223.087637,168.814973 225.18658,159.819504 C226.086127,155.321769 229.684315,151.723581 234.182049,151.123883 L254.271931,148.425243 C254.57178,145.726602 254.57178,142.428263 254.57178,139.129924 L254.57178,137.930528 C254.57178,134.63219 254.57178,131.333851 254.271931,128.63521 L234.481898,125.936569 C230.284013,125.336871 226.685825,122.038533 225.486429,117.840647 C223.387486,108.545329 219.789299,99.8497086 214.991715,91.7537863 C214.392017,91.1540883 214.092168,90.2545414 213.792319,89.3549945 C212.592923,86.0566558 213.192621,82.1586191 215.291564,79.4599783 L227.585372,63.2681337 C225.786278,61.1691909 223.687335,58.7703991 221.288543,56.3716073 L220.089148,55.1722114 C217.690356,52.7734196 215.291564,50.6744767 213.192621,48.8753829 L197.300625,60.8693419 C193.402589,63.5679827 188.305156,63.5679827 184.706968,60.8693419 C176.910895,56.0717583 168.215275,52.4735706 159.219806,50.0747788 C155.02192,49.1752319 151.723581,45.5770442 151.123883,41.0793096 L148.425243,20.9894282 C145.726602,20.6895793 142.428263,20.6895793 139.129924,20.6895793 L137.930528,20.6895793 C134.63219,20.6895793 131.333851,20.6895793 128.63521,20.9894282 L125.936569,41.3791585 C125.336871,46.1767421 121.738684,49.7749298 116.9411,50.3746278 C107.945631,52.4735706 99.2500107,56.0717583 91.4539373,60.8693419 C89.0551455,62.3685868 86.0566558,62.6684357 83.358015,62.0687378 C81.8587701,61.7688888 80.3595253,60.8693419 79.1601294,59.969795 L63.5679827,47.975836 C61.4690398,49.7749298 59.070248,51.8738726 56.6714562,54.2726644 L55.4720603,55.4720603 C53.0732685,57.8708521 50.9743257,60.2696439 49.1752319,62.3685868 L61.1691909,78.2605824 C63.8678316,81.8587701 63.8678316,86.3565048 61.7688888,90.2545414 C61.4690398,90.5543904 61.4690398,90.8542394 61.1691909,91.1540883 C56.3716073,98.9501617 52.7734196,107.645782 50.6744767,116.641251 C49.7749298,120.839137 46.1767421,124.137476 41.6790075,124.737174 L21.5891262,127.435814 C21.2892772,130.134455 21.2892772,133.432794 21.2892772,136.731133 L21.2892772,137.930528 C21.2892772,141.228867 21.2892772,144.527206 21.5891262,147.225847 L41.3791585,149.924487 C46.1767421,150.524185 49.7749298,154.122373 50.3746278,158.919957 L50.3746278,159.219806 C52.4735706,168.215275 56.0717583,176.611046 60.8693419,184.40712 C62.3685868,187.10576 62.9682847,190.404099 61.7688888,193.402589 C61.4690398,194.601985 60.5694929,195.801381 59.669946,197.000776 L47.975836,212.592923 C49.7749298,214.691866 51.8738726,217.090658 54.2726644,219.48945 L55.4720603,220.688845 C57.8708521,223.087637 60.2696439,225.18658 62.3685868,226.985674 L78.2605824,214.991715 C82.1586191,211.993225 87.8557496,212.293074 91.4539373,215.291564 C99.2500107,220.089148 107.645782,223.387486 116.341402,225.786278 C120.539288,226.685825 123.837627,230.284013 124.437325,234.781747 L127.135965,254.271931 Z" id="XMLID_160_"></path>
        </g>
    </g>
</svg>