<?xml version="1.0" encoding="UTF-8"?>
<svg width="345px" height="345px" viewBox="0 0 345 345" version="1.1" xmlns="http://www.w3.org/2000/svg" xmlns:xlink="http://www.w3.org/1999/xlink">
    <!-- Generator: Sketch 43.1 (39012) - http://www.bohemiancoding.com/sketch -->
    <title>search</title>
    <desc>Created with Sketch.</desc>
    <defs></defs>
    <g id="Page-1" stroke="none" stroke-width="1" fill="none" fill-rule="evenodd">
        <g id="search" fill-rule="nonzero" fill="#6B7C93">
            <path d="M149.260625,0.975149265 C66.9540516,0.975149265 0,67.9292008 0,150.235774 C0,232.542347 66.9540516,299.496398 149.260625,299.496398 C174.421701,299.496398 199.156319,293.525973 220.052806,282.011582 C221.72664,284.025885 223.58247,285.881715 225.596772,287.555548 L268.242665,330.201441 C278.972271,342.27472 295.50821,347.408693 311.188896,343.535113 C326.869581,339.661534 339.112843,327.418271 342.986423,311.737586 C346.860003,296.056901 341.726029,279.520961 329.652751,268.791356 L287.006858,226.145463 C284.929479,224.067338 282.642884,222.20948 280.183515,220.601497 C291.697906,199.705009 298.947708,175.39685 298.947708,149.809315 C298.947708,67.5027419 231.993656,0.548690338 149.687083,0.548690338 L149.260625,0.975149265 Z M149.260625,43.621042 C208.538415,43.621042 255.875356,90.9579829 255.875356,150.235774 C255.875356,178.382063 245.640342,204.396058 227.729067,223.586709 C227.302608,224.013168 226.876149,224.439627 226.44969,224.866086 C224.435387,226.53992 222.579558,228.395749 220.905724,230.410052 C202.141531,247.468409 176.553996,257.276965 148.834166,257.276965 C89.5563747,257.276965 42.2194338,209.940024 42.2194338,150.662233 C42.2194338,91.3844418 89.5563747,44.0475009 148.834166,44.0475009 L149.260625,43.621042 Z" id="Shape"></path>
        </g>
    </g>
</svg>