<?xml version="1.0" encoding="UTF-8"?>
<svg width="8px" height="7px" viewBox="0 0 8 7" version="1.1" xmlns="http://www.w3.org/2000/svg" xmlns:xlink="http://www.w3.org/1999/xlink">
    <!-- Generator: Sketch 42 (36781) - http://www.bohemiancoding.com/sketch -->
    <title>Artboard</title>
    <desc>Created with Sketch.</desc>
    <defs></defs>
    <g id="Page-1" stroke="none" stroke-width="1" fill="none" fill-rule="evenodd">
        <g id="Artboard" fill-rule="nonzero" fill="#C6CACD">
            <path d="M0.75,0 C0.34,0 0,0.34 0,0.75 L0,6.25 C0,6.66 0.34,7 0.75,7 L7.25,7 C7.66,7 8,6.66 8,6.25 L8,0.75 C8,0.34 7.66,0 7.25,0 L0.75,0 Z M1,1 L2,1 L2,2 L1,2 L1,1 Z M3,1 L7,1 L7,2 L3,2 L3,1 Z M1,3 L2,3 L2,4 L1,4 L1,3 Z M3,3 L7,3 L7,4 L3,4 L3,3 Z M1,5 L2,5 L2,6 L1,6 L1,5 Z M3,5 L7,5 L7,6 L3,6 L3,5 Z" id="Shape"></path>
        </g>
    </g>
</svg>