<?xml version="1.0" encoding="UTF-8"?>
<svg width="49px" height="40px" viewBox="0 0 49 40" version="1.1" xmlns="http://www.w3.org/2000/svg" xmlns:xlink="http://www.w3.org/1999/xlink">
    <!-- Generator: Sketch 42 (36781) - http://www.bohemiancoding.com/sketch -->
    <title>twitter-white</title>
    <desc>Created with Sketch.</desc>
    <defs></defs>
    <g id="Page-1" stroke="none" stroke-width="1" fill="none" fill-rule="evenodd">
        <g id="twitter-white" fill-rule="nonzero" fill="#FFFFFF">
            <path d="M48.837,5.065 C47.026,5.87 45.077,6.413 43.032,6.656 C45.12,5.406 46.721,3.426 47.476,1.064 C45.523,2.223 43.361,3.064 41.058,3.518 C39.215,1.554 36.588,0.326 33.681,0.326 C28.1,0.326 23.575,4.851 23.575,10.433 C23.575,11.224 23.664,11.995 23.837,12.736 C15.437,12.314 7.989,8.291 3.004,2.176 C2.134,3.668 1.636,5.404 1.636,7.258 C1.636,10.764 3.42,13.858 6.132,15.67 C4.476,15.617 2.917,15.162 1.554,14.405 C1.553,14.447 1.553,14.49 1.553,14.533 C1.553,19.429 5.037,23.513 9.661,24.443 C8.813,24.673 7.92,24.797 6.998,24.797 C6.346,24.797 5.713,24.734 5.096,24.615 C6.383,28.63 10.115,31.553 14.537,31.634 C11.078,34.345 6.721,35.961 1.985,35.961 C1.17,35.961 0.365,35.913 -0.426,35.819 C4.048,38.688 9.36,40.36 15.067,40.36 C33.658,40.36 43.823,24.96 43.823,11.604 C43.823,11.166 43.814,10.729 43.795,10.295 C45.769,8.873 47.483,7.092 48.837,5.065 Z" id="Shape"></path>
        </g>
    </g>
</svg>